<?xml version="1.0" standalone="no"?>
<!DOCTYPE svg PUBLIC "-//W3C//DTD SVG 20010904//EN"
 "http://www.w3.org/TR/2001/REC-SVG-20010904/DTD/svg10.dtd">
<svg version="1.0" xmlns="http://www.w3.org/2000/svg"
 width="132.000000pt" height="132.000000pt" viewBox="0 0 132.000000 132.000000"
 preserveAspectRatio="xMidYMid meet">
<metadata>
Created by potrace 1.14, written by Peter Selinger 2001-2017
</metadata>
<g transform="translate(0.000000,132.000000) scale(0.100000,-0.100000)"
fill="#000000" stroke="none">
<path d="M627 1153 c-2 -4 -3 -17 -1 -28 2 -11 4 -41 5 -67 2 -27 6 -48 11
-48 7 0 0 140 -7 148 -2 2 -5 0 -8 -5z"/>
<path d="M695 1148 c-2 -7 -6 -58 -10 -113 -13 -225 -24 -302 -26 -199 -1 27
-3 58 -4 69 -1 11 -3 37 -3 58 -1 20 -6 37 -12 37 -5 0 -8 -6 -5 -12 2 -7 6
-53 9 -103 6 -111 -2 -90 -45 115 -18 85 -34 149 -37 142 -2 -7 10 -79 27
-160 42 -194 43 -203 31 -177 -5 11 -29 76 -54 145 -60 169 -66 184 -71 178
-3 -3 20 -74 50 -158 30 -84 55 -154 55 -157 0 -2 -5 -1 -12 3 -8 5 -9 2 -5
-10 4 -10 7 -21 7 -24 0 -4 5 0 10 8 6 9 10 10 10 3 0 -36 -28 -8 -125 127
-60 83 -110 148 -113 146 -4 -4 115 -176 195 -282 17 -23 19 -31 8 -31 -8 0
-12 3 -10 7 3 4 -4 15 -15 25 -22 20 -28 8 -7 -15 6 -7 -19 11 -58 40 -38 30
-88 68 -110 85 -21 16 -51 40 -65 53 -23 20 -40 28 -40 18 0 -3 62 -53 138
-112 75 -59 144 -114 152 -123 13 -13 13 -14 0 -4 -8 6 -69 42 -135 81 -66 38
-137 79 -158 91 -20 13 -37 19 -37 14 0 -4 12 -15 28 -24 15 -9 83 -49 152
-89 69 -39 129 -76 134 -80 5 -5 -67 22 -160 61 -93 38 -173 68 -178 66 -5 -2
66 -34 157 -72 92 -37 166 -69 165 -71 -2 -1 -55 11 -118 27 -176 45 -230 57
-230 50 0 -4 71 -24 158 -45 164 -41 225 -59 162 -51 -32 4 -164 18 -295 30
-33 3 -43 2 -30 -4 11 -4 54 -12 95 -16 41 -4 86 -8 100 -10 14 -2 57 -6 95
-10 39 -4 72 -9 74 -11 2 -2 -40 -4 -95 -5 -137 -1 -277 -9 -284 -16 -3 -3 81
-3 185 0 l190 5 -90 -17 c-49 -10 -135 -26 -190 -36 -55 -10 -94 -20 -87 -23
8 -2 39 1 70 7 172 33 284 52 288 49 2 -2 -72 -28 -164 -58 -92 -29 -171 -57
-177 -63 -12 -11 -7 -10 178 50 76 25 141 43 143 41 2 -3 -64 -37 -146 -78
-83 -40 -149 -75 -146 -77 5 -5 63 21 211 94 61 30 106 51 100 45 -9 -9 -161
-114 -247 -172 -21 -14 -38 -29 -38 -33 0 -5 70 39 155 98 85 58 155 101 155
95 0 -6 6 -8 13 -4 6 4 4 -2 -5 -13 -27 -29 -22 -40 6 -14 l24 23 11 -21 c9
-17 2 -53 -39 -192 -27 -95 -48 -174 -45 -177 6 -6 7 -3 61 183 55 192 65 214
45 94 -9 -48 -17 -101 -26 -179 -2 -14 -6 -45 -10 -70 -3 -28 -2 -39 3 -30 5
8 17 73 27 145 10 72 18 135 19 142 1 7 5 15 8 18 3 4 6 -66 6 -155 -1 -88 2
-163 6 -167 3 -3 6 83 6 192 0 109 2 196 4 194 2 -2 7 -33 10 -69 4 -36 9 -74
11 -85 6 -25 13 -76 20 -140 8 -67 15 -98 21 -93 2 3 0 38 -6 79 -6 41 -12 90
-15 109 -3 19 -9 68 -15 109 -6 41 -9 75 -7 77 1 2 23 -70 47 -159 24 -89 47
-170 53 -180 18 -38 15 -9 -7 68 -62 211 -75 259 -72 262 2 2 36 -71 76 -162
40 -91 75 -164 77 -161 5 5 -87 225 -129 311 -31 62 -7 30 67 -90 104 -169
125 -201 125 -189 0 6 -37 71 -83 145 -45 74 -87 141 -92 149 -23 38 29 -18
126 -135 57 -69 105 -122 108 -120 2 3 -2 13 -11 22 -8 10 -61 73 -117 141
-59 71 -107 120 -113 116 -7 -4 -8 -2 -4 5 9 14 23 4 151 -114 126 -116 137
-126 142 -121 3 2 -17 24 -43 48 -26 23 -77 71 -113 104 -37 34 -79 73 -96 88
-29 26 241 -151 278 -182 9 -8 17 -11 17 -5 0 10 -17 23 -193 142 -43 29 -76
55 -74 58 3 2 68 -28 146 -66 77 -39 146 -71 153 -70 14 0 -298 159 -313 159
-6 0 -7 -5 -3 -12 5 -7 3 -8 -5 -3 -8 4 -9 11 -3 17 6 6 74 -12 181 -47 95
-31 175 -55 177 -52 3 3 -75 32 -173 66 -98 33 -163 58 -145 55 19 -3 43 -7
55 -9 12 -1 75 -12 140 -24 65 -12 124 -20 130 -18 7 2 -42 14 -108 27 -167
31 -185 34 -227 35 -20 0 -34 4 -31 8 3 5 46 6 97 3 142 -8 276 -9 283 -2 3 3
-16 6 -43 7 -27 0 -83 2 -124 4 -41 1 -104 4 -140 5 l-65 2 55 9 c61 8 121 15
225 25 39 3 77 10 85 15 14 9 -17 7 -125 -6 -22 -2 -67 -7 -100 -11 -33 -3
-70 -7 -82 -9 -12 -1 -20 1 -18 5 3 4 75 25 160 46 85 21 155 41 155 45 0 4
-42 -4 -92 -17 -51 -13 -104 -26 -118 -29 -14 -3 -50 -12 -80 -20 -30 -8 -55
-13 -57 -12 -1 2 74 34 168 72 94 38 166 71 161 73 -6 2 -73 -22 -149 -54 -76
-31 -144 -59 -152 -62 -9 -3 -12 -1 -7 6 11 18 -15 14 -36 -5 -10 -9 -18 -14
-18 -10 0 3 64 56 143 118 168 132 164 129 151 129 -6 0 -46 -28 -90 -63 -160
-127 -218 -170 -195 -144 26 29 19 37 -10 11 -11 -10 -19 -12 -24 -4 -3 6 -1
9 6 8 12 -3 224 280 216 289 -5 4 -32 -32 -150 -196 -33 -45 -61 -81 -63 -81
-5 0 134 269 148 287 6 7 8 18 6 24 -2 7 -22 -21 -43 -62 -93 -180 -130 -248
-132 -245 -2 2 11 41 28 87 79 212 97 270 82 254 -6 -5 -24 -50 -41 -100 -46
-132 -93 -254 -88 -225 3 14 19 94 36 179 17 84 29 158 27 164 -3 9 -21 -64
-41 -168 -40 -198 -48 -227 -41 -145 2 30 7 100 11 155 3 55 7 117 9 138 2 37
-2 48 -10 25z m-48 -650 c-3 -7 -5 -2 -5 12 0 14 2 19 5 13 2 -7 2 -19 0 -25z"/>
<path d="M430 1097 c0 -14 142 -278 147 -273 3 3 -25 63 -62 133 -63 121 -85
157 -85 140z"/>
<path d="M320 1014 c0 -6 10 -19 23 -31 12 -11 57 -57 101 -102 43 -45 81 -79
84 -76 3 3 -43 53 -101 113 -59 59 -107 102 -107 96z"/>
<path d="M900 908 c-118 -124 -150 -171 -43 -63 95 96 157 165 152 169 -2 3
-51 -45 -109 -106z"/>
<path d="M953 827 c-67 -40 -125 -75 -129 -79 -22 -23 25 1 146 72 74 44 128
80 120 79 -8 0 -70 -33 -137 -72z"/>
<path d="M445 478 c-130 -119 -172 -160 -158 -156 6 1 51 39 100 84 48 44 106
97 128 117 22 20 36 37 30 37 -5 0 -50 -37 -100 -82z"/>
<path d="M558 514 c-13 -21 -57 -92 -97 -157 -41 -65 -71 -120 -69 -123 3 -2
47 63 98 146 52 82 95 148 97 147 1 -2 -29 -74 -68 -161 -39 -87 -68 -160 -65
-163 3 -3 15 16 26 43 12 27 44 99 72 161 38 85 48 115 40 129 -8 15 -13 13
-34 -22z"/>
<path d="M438 408 c-98 -118 -119 -146 -100 -134 19 12 204 237 199 242 -3 3
-47 -46 -99 -108z"/>
</g>
</svg>
